<svg width="60" height="63" viewBox="0 0 60 63" fill="none" xmlns="http://www.w3.org/2000/svg">
<ellipse cx="25" cy="20.6896" rx="12.5" ry="12.931" fill="#222222"/>
<path d="M47.5 25.8621L47.5 41.3793" stroke="#222222" stroke-width="2" stroke-linecap="round"/>
<path d="M55 33.6207L40 33.6207" stroke="#222222" stroke-width="2" stroke-linecap="round"/>
<path d="M43.9586 52.455C44.5221 52.323 44.8587 51.7404 44.6535 51.1993C43.3519 47.7668 40.9006 44.7453 37.6047 42.5341C33.9886 40.1081 29.558 38.7931 25 38.7931C20.442 38.7931 16.0114 40.1081 12.3953 42.5341C9.0994 44.7453 6.64806 47.7668 5.34653 51.1993C5.14133 51.7404 5.47794 52.323 6.04142 52.455L15.876 54.759C21.8774 56.165 28.1226 56.165 34.124 54.759L43.9586 52.455Z" fill="#222222"/>
</svg>
